/* XPM */
static char * D:\Projects\Windows\BSITKAS\dist\Debug\MinGW_Windows\images\logo_xpm[] = {
"64 64 570 2",
"  	c None",
". 	c #FFCC00",
"+ 	c #FECB00",
"@ 	c #FFCE00",
"# 	c #FFCD00",
"$ 	c #FFD000",
"% 	c #FCCA01",
"& 	c #C0A92A",
"* 	c #B19F35",
"= 	c #E5BD12",
"- 	c #FDCB01",
"; 	c #F7C705",
"> 	c #D7B51B",
", 	c #BBA52E",
"' 	c #F0C40A",
") 	c #FFD100",
"! 	c #FFCF00",
"~ 	c #FECC00",
"{ 	c #FFCB00",
"] 	c #C5AB27",
"^ 	c #6D7963",
"/ 	c #556C74",
"( 	c #62736B",
"_ 	c #E2BC13",
": 	c #A99A3A",
"< 	c #4F6978",
"[ 	c #596E71",
"} 	c #969048",
"| 	c #F8C705",
"1 	c #F8C804",
"2 	c #C9AC24",
"3 	c #566B73",
"4 	c #4D677A",
"5 	c #516977",
"6 	c #61736C",
"7 	c #E1BB14",
"8 	c #FBCA02",
"9 	c #FAC903",
"0 	c #A79B3B",
"a 	c #4C667A",
"b 	c #4F6878",
"c 	c #49647C",
"d 	c #767F5D",
"e 	c #E0BB14",
"f 	c #F8C704",
"g 	c #D5B41C",
"h 	c #6E7A63",
"i 	c #46637E",
"j 	c #526A76",
"k 	c #4F6879",
"l 	c #5C6F70",
"m 	c #A2973F",
"n 	c #B2A035",
"o 	c #747D5E",
"p 	c #CEB021",
"q 	c #E8BF0F",
"r 	c #DBB817",
"s 	c #BBA62E",
"t 	c #898950",
"u 	c #757D5E",
"v 	c #D5B31D",
"w 	c #898951",
"x 	c #576C73",
"y 	c #4E6879",
"z 	c #D4B41D",
"A 	c #888851",
"B 	c #47637D",
"C 	c #536A76",
"D 	c #516976",
"E 	c #47647D",
"F 	c #777F5D",
"G 	c #AA9B3A",
"H 	c #48657D",
"I 	c #4E6779",
"J 	c #4B667B",
"K 	c #46637F",
"L 	c #7D8259",
"M 	c #EFC30A",
"N 	c #4C677A",
"O 	c #5E716E",
"P 	c #DAB719",
"Q 	c #5B6F6F",
"R 	c #5A6E71",
"S 	c #E9BF0E",
"T 	c #E7BE10",
"U 	c #FDCA01",
"V 	c #576D73",
"W 	c #4D6779",
"X 	c #5E706E",
"Y 	c #A79A3B",
"Z 	c #E5BD11",
"` 	c #838555",
" .	c #47637E",
"..	c #506977",
"+.	c #8D8C4E",
"@.	c #F0C309",
"#.	c #516A77",
"$.	c #D4B31D",
"%.	c #5C6F6F",
"&.	c #8D8C4D",
"*.	c #E3BC13",
"=.	c #838655",
"-.	c #49657D",
";.	c #858653",
">.	c #FCCA02",
",.	c #526A77",
"'.	c #4A657C",
").	c #9B9443",
"!.	c #B8A330",
"~.	c #AA9C39",
"{.	c #7F8358",
"].	c #566C73",
"^.	c #48647D",
"/.	c #9B9344",
"(.	c #F2C508",
"_.	c #5D706E",
":.	c #4C667B",
"<.	c #6D7964",
"[.	c #F9C803",
"}.	c #F1C409",
"|.	c #F5C706",
"1.	c #63746A",
"2.	c #6A7666",
"3.	c #EFC309",
"4.	c #BDA62C",
"5.	c #4B657B",
"6.	c #506978",
"7.	c #717B61",
"8.	c #959048",
"9.	c #677667",
"0.	c #A69A3C",
"a.	c #D2B31D",
"b.	c #EEC20B",
"c.	c #E4BC12",
"d.	c #F1C40A",
"e.	c #E5BC11",
"f.	c #F1C20A",
"g.	c #FDCB00",
"h.	c #D3B31D",
"i.	c #A1973F",
"j.	c #F6C605",
"k.	c #DDB916",
"l.	c #5D706F",
"m.	c #D9B619",
"n.	c #B7A331",
"o.	c #5B6F70",
"p.	c #D6B51B",
"q.	c #D6B41C",
"r.	c #48647C",
"s.	c #CEAF21",
"t.	c #969147",
"u.	c #49647D",
"v.	c #797F5C",
"w.	c #9A9245",
"x.	c #6F7A62",
"y.	c #F2C408",
"z.	c #B19F34",
"A.	c #FDCA00",
"B.	c #757E5D",
"C.	c #CCAE22",
"D.	c #C3AA28",
"E.	c #C6AC26",
"F.	c #DFBA14",
"G.	c #707B62",
"H.	c #A6993D",
"I.	c #49657C",
"J.	c #D7B51A",
"K.	c #878852",
"L.	c #DBB818",
"M.	c #C2A929",
"N.	c #7E8357",
"O.	c #E9BE0F",
"P.	c #8F8C4C",
"Q.	c #7F8357",
"R.	c #FFD300",
"S.	c #999245",
"T.	c #61726C",
"U.	c #DFBA15",
"V.	c #D2B21F",
"W.	c #B09E36",
"X.	c #EBC10C",
"Y.	c #979147",
"Z.	c #E6BE10",
"`.	c #928E4A",
" +	c #596F72",
".+	c #63746B",
"++	c #EBC00D",
"@+	c #F4C507",
"#+	c #9F9541",
"$+	c #959047",
"%+	c #FFD400",
"&+	c #868752",
"*+	c #79805B",
"=+	c #808456",
"-+	c #506878",
";+	c #7C815A",
">+	c #FCC701",
",+	c #F7C004",
"'+	c #AD9D37",
")+	c #546B75",
"!+	c #6B7865",
"~+	c #918D4A",
"{+	c #4A657B",
"]+	c #D4B31E",
"^+	c #667569",
"/+	c #A3973E",
"(+	c #A89B3B",
"_+	c #536A75",
":+	c #E9AB0D",
"<+	c #BD6528",
"[+	c #EAAA0D",
"}+	c #B8A430",
"|+	c #8E8B4D",
"1+	c #F6C705",
"2+	c #808357",
"3+	c #AE9E37",
"4+	c #C8AD25",
"5+	c #F8C803",
"6+	c #F4C607",
"7+	c #A4983E",
"8+	c #828555",
"9+	c #D58A1A",
"0+	c #B95E2B",
"a+	c #B95F2B",
"b+	c #F1B608",
"c+	c #F8CA04",
"d+	c #EDC20B",
"e+	c #ECC10C",
"f+	c #D3B21E",
"g+	c #B6A231",
"h+	c #8B8A4F",
"i+	c #677668",
"j+	c #566C74",
"k+	c #B1A034",
"l+	c #45637F",
"m+	c #47647E",
"n+	c #9C9443",
"o+	c #D0B120",
"p+	c #F3C508",
"q+	c #7C8159",
"r+	c #647469",
"s+	c #CA7920",
"t+	c #C36E25",
"u+	c #CFB120",
"v+	c #A09541",
"w+	c #64746A",
"x+	c #BEA72C",
"y+	c #F5C606",
"z+	c #E8BE0F",
"A+	c #A3983F",
"B+	c #8C8B4F",
"C+	c #828556",
"D+	c #D0B220",
"E+	c #868753",
"F+	c #A19640",
"G+	c #B6A232",
"H+	c #CAAE25",
"I+	c #E0BA14",
"J+	c #FFD200",
"K+	c #FBCA01",
"L+	c #546B76",
"M+	c #B1A035",
"N+	c #F5BD05",
"O+	c #C26D25",
"P+	c #BA602A",
"Q+	c #DB9216",
"R+	c #7D8359",
"S+	c #BFA72B",
"T+	c #687668",
"U+	c #556B74",
"V+	c #878851",
"W+	c #C2AA29",
"X+	c #5C706F",
"Y+	c #918D4B",
"Z+	c #F2B807",
"`+	c #C06A26",
" @	c #BA602B",
".@	c #C57223",
"+@	c #A19740",
"@@	c #E3BC12",
"#@	c #6B7864",
"$@	c #908D4B",
"%@	c #F6C606",
"&@	c #DBB718",
"*@	c #C8AC25",
"=@	c #B3A133",
"-@	c #9F9642",
";@	c #7A815B",
">@	c #687667",
",@	c #B4A232",
"'@	c #727C60",
")@	c #F0C30A",
"!@	c #BF6827",
"~@	c #BE6628",
"{@	c #F1B208",
"]@	c #E2BD13",
"^@	c #808457",
"/@	c #C7AC26",
"(@	c #426181",
"_@	c #D7B61B",
":@	c #596D72",
"<@	c #F0B409",
"[@	c #BF6727",
"}@	c #B85D2B",
"|@	c #DF9A14",
"1@	c #908D4C",
"2@	c #FFD500",
"3@	c #989246",
"4@	c #586D72",
"5@	c #F3C507",
"6@	c #C3AA29",
"7@	c #EEB20A",
"8@	c #B75C2C",
"9@	c #CD7F1E",
"0@	c #B75B2C",
"a@	c #DA9216",
"b@	c #FFD600",
"c@	c #727C61",
"d@	c #A09641",
"e@	c #868852",
"f@	c #F6BE05",
"g@	c #DE9814",
"h@	c #DC9416",
"i@	c #B5592D",
"j@	c #DC9515",
"k@	c #7C8259",
"l@	c #878951",
"m@	c #BCA62D",
"n@	c #45627F",
"o@	c #B5A232",
"p@	c #F8C004",
"q@	c #CA7820",
"r@	c #B4562E",
"s@	c #FCC900",
"t@	c #CD7E1F",
"u@	c #B65A2C",
"v@	c #DE9813",
"w@	c #546A74",
"x@	c #EDC10B",
"y@	c #CFB11F",
"z@	c #767E5E",
"A@	c #526977",
"B@	c #A99B3A",
"C@	c #D3871A",
"D@	c #B6592D",
"E@	c #C77323",
"F@	c #E8A70E",
"G@	c #FBC502",
"H@	c #E19D12",
"I@	c #CA7A20",
"J@	c #F9CB03",
"K@	c #C4AC26",
"L@	c #6C7864",
"M@	c #526976",
"N@	c #BFA82C",
"O@	c #A69A3B",
"P@	c #A09640",
"Q@	c #E29E12",
"R@	c #BB622A",
"S@	c #F9C303",
"T@	c #E6A50F",
"U@	c #C06927",
"V@	c #FEC700",
"W@	c #D8B61B",
"X@	c #848654",
"Y@	c #A5983E",
"Z@	c #C3A928",
"`@	c #4A667B",
" #	c #AA9C3A",
".#	c #B65A2D",
"+#	c #C47024",
"@#	c #E4A210",
"##	c #D68C19",
"$#	c #9E9442",
"%#	c #F1B708",
"&#	c #DFB915",
"*#	c #BAA42F",
"=#	c #D9B71A",
"-#	c #CE801E",
";#	c #D3871B",
">#	c #ECC10D",
",#	c #B09F35",
"'#	c #F7BE05",
")#	c #4E6878",
"!#	c #B9A430",
"~#	c #A6993C",
"{#	c #D8B51A",
"]#	c #FBC701",
"^#	c #BA612A",
"/#	c #B85D2C",
"(#	c #D1841C",
"_#	c #C0A82A",
":#	c #C97821",
"<#	c #D0821D",
"[#	c #BBA52F",
"}#	c #B7A431",
"|#	c #CCAE23",
"1#	c #E9A90D",
"2#	c #D3861B",
"3#	c #C67323",
"4#	c #F7C905",
"5#	c #F9C903",
"6#	c #BE6728",
"7#	c #EFB209",
"8#	c #61726B",
"9#	c #B6A331",
"0#	c #BEA72B",
"a#	c #9E9543",
"b#	c #DF9B13",
"c#	c #B85E2B",
"d#	c #BF6828",
"e#	c #F0B509",
"f#	c #F3BA06",
"g#	c #C77423",
"h#	c #C87522",
"i#	c #D99017",
"j#	c #818456",
"k#	c #B3A134",
"l#	c #596D71",
"m#	c #E3A111",
"n#	c #C06926",
"o#	c #B4572E",
"p#	c #BF6927",
"q#	c #CB7B1F",
"r#	c #FFC900",
"s#	c #AF9E36",
"t#	c #E6BE11",
"u#	c #A4993D",
"v#	c #E4BC11",
"w#	c #F8C104",
"x#	c #D78D18",
"y#	c #C57123",
"z#	c #F4BC06",
"A#	c #F6BC04",
"B#	c #E4BD12",
"C#	c #B4A133",
"D#	c #436280",
"E#	c #B7A332",
"F#	c #979247",
"G#	c #EAC00E",
"H#	c #CDAF21",
"I#	c #7B805A",
"J#	c #C6AB27",
"K#	c #EBAD0C",
"L#	c #E09B13",
"M#	c #B9602A",
"N#	c #F0B508",
"O#	c #928F4A",
"P#	c #7A805B",
"Q#	c #4B667C",
"R#	c #546A75",
"S#	c #6A7866",
"T#	c #FCC801",
"U#	c #FDC901",
"V#	c #CF811D",
"W#	c #B95F2A",
"X#	c #EFB309",
"Y#	c #999246",
"Z#	c #D2B21E",
"`#	c #888852",
" $	c #AD9D38",
".$	c #4F6979",
"+$	c #B2A134",
"@$	c #DEB916",
"#$	c #EBC10D",
"$$	c #F7C805",
"%$	c #979048",
"&$	c #AC9D39",
"*$	c #BC6329",
"=$	c #BB612A",
"-$	c #FCC602",
";$	c #D2871B",
">$	c #F7BC04",
",$	c #E5BE10",
"'$	c #C4AB27",
")$	c #F3C408",
"!$	c #D4B31C",
"~$	c #8D8B4E",
"{$	c #697667",
"]$	c #BAA52F",
"^$	c #7F8457",
"/$	c #A69A3D",
"($	c #CFB020",
"_$	c #D1861C",
":$	c #BE6827",
"<$	c #E8A90D",
"[$	c #CE801D",
"}$	c #EBAC0C",
"|$	c #CC7D1F",
"1$	c #C1A92A",
"2$	c #506877",
"3$	c #D3B41E",
"4$	c #E2BB13",
"5$	c #A99A3B",
"6$	c #BF6728",
"7$	c #D78D19",
"8$	c #BF6628",
"9$	c #D89017",
"0$	c #989146",
"a$	c #FBC902",
"b$	c #E0BA15",
"c$	c #D4B41C",
"d$	c #C6AC27",
"e$	c #6F7A63",
"f$	c #3D5D84",
"g$	c #BB6229",
"h$	c #BB6329",
"i$	c #EDB00A",
"j$	c #CF801D",
"k$	c #ECAF0B",
"l$	c #979146",
"m$	c #446180",
"n$	c #5F716D",
"o$	c #E9AA0D",
"p$	c #C36F24",
"q$	c #DD9914",
"r$	c #CE7F1E",
"s$	c #EFC20A",
"t$	c #CDB021",
"u$	c #DCB817",
"v$	c #446280",
"w$	c #F4BB06",
"x$	c #C57124",
"y$	c #BE6727",
"z$	c #D68D18",
"A$	c #D3851C",
"B$	c #FECA00",
"C$	c #F9C402",
"D$	c #707B61",
"E$	c #576D72",
"F$	c #8C8B4E",
"G$	c #4A667C",
"H$	c #969047",
"I$	c #C77522",
"J$	c #F6BD05",
"K$	c #64736A",
"L$	c #F2B907",
"M$	c #EEB30A",
"N$	c #EBAE0B",
"O$	c #EDAF0B",
"P$	c #908C4B",
"Q$	c #5D6F70",
"R$	c #A09741",
"S$	c #FEC900",
"T$	c #EFC30B",
"U$	c #737D60",
"V$	c #F7C704",
"W$	c #7B825A",
"X$	c #B6A332",
"Y$	c #AC9D37",
"Z$	c #60726D",
"`$	c #697767",
" %	c #F5C605",
".%	c #AF9F36",
"+%	c #677567",
"@%	c #7E8257",
"#%	c #62726C",
"$%	c #7D8258",
"%%	c #60726C",
"&%	c #938F4A",
"*%	c #E2BB14",
"=%	c #536976",
"-%	c #BBA62D",
";%	c #AB9C39",
">%	c #9E9542",
",%	c #9C9343",
"'%	c #B3A033",
")%	c #526A75",
"!%	c #506A77",
"~%	c #516A76",
"                                                                                                                                ",
"                                                                                                                                ",
"                                                            . . . . . . . . . . . .                                             ",
"                                                    . . + . @ @ # . + . . . + . # @ # . + .                                     ",
"                                                . + . # $ % & * = - . . . . . ; > , ' ) ! . . .                                 ",
"                                            . + ~ . { ] ^ / ( _ . + . . . . . + + : < [ } | # . + .                             ",
"                                          + . . 1 2 3 4 5 5 6 7 8 % . . . . + 9 9 0 a 5 b c d e + . . .                         ",
"                                      + . @ f g h i 5 j k l m n o m p q 8 r s t u v w x b j b y p @ # . +                       ",
"                                    + . # z A B y C D E F p G H I J K L M N E 4 y O P ] Q b 4 R S T , U . +                     ",
"                                  + . # , V W 5 5 5 X Y Z `  .5 5 D ..+.@.l ..#.5 b [ ] $.%.&.*.# =.-.;.>.# +                   ",
"                                . . . , C ..5 ,.j '.).9 !.~.{.].J ^.^./.(._.i i :.[ <.Y [.}.|.G 1.C 5 b 2.3.@ +                 ",
"                              . + . 4.5.5 j j j 6.7.[.8.C C 9.0.a.b.c.d.% e.f.g.+ . 1 h.i.j.k.J 5 5 j #.5 l.m.@ +               ",
"                            + . + n.E j ,.,.j 5 o.p.q.R 5 5 5 y a '.r.s.9 t./ j I '.u.a J v.. w.N 5 ,.,.j b x.y.. .             ",
"                            + ! z.'.j j ,.,.j 5 * A.B.I j ,.,.,.,.j b C.1 L 4 5 5 5 j ,.j ^.D.+ <.W j ,.,.5 6.E.# . .           ",
"                .         + @ F.x j ,.,.,.j ..G.! H.I.j j ,.,.,.,.,.y J.9 K.W ,.,.,.,.,.j ,...M L.V 5 j ,.5 y M.@ @ + .         ",
"                  .     + . % N...j ,.,.,.j ^.O.@.5 ..j ,.,.,.,.,.,.y 7 % P.4 ,.,.,.,.,.,.j 5 Q.R.S.a j j ..T.U.@ V.# +         ",
"                  . .   ~ @ s ..5 ,.,.,.j y L . W.'.j ,.,.,.,.,.,.,.I X.g.Y.N ,.,.,.,.,.,.,.j o.Z.m.l 5 5 k `.$ c. +8 . .       ",
"                . + { . . q .+6.j 5 j j 5 i ++% 6.5 ,.,.,.,.,.,.,.,.W @+. #+:.,.,.,.,.,.,.,.,.5 $+%+&+..j *+# ! =+-+;+! .       ",
"                . >+,+. U '+^.j ,.5 )+!+T.~+% D.{+j j ,.,.,.,.,.,.,.4 g.# 0.J ,.,.,.,.,.,.,.j ..!+y.]+^+/+! . (+6.5 _+U.# +     ",
"                @ :+<+[+@ }+:.5 j j 5 5 |+1+! 2+C J W -+..5 5 j ,.j N ! # 3+'.,.,.j 5 5 5 b a a x 4+@ 5+) 6+7+'.5 j j 8+) +     ",
"              + ) 9+0+a+b+c+=+4 j ,.j b 9.d+e+M.f+g+h+i+j+J i ^.J 4 E $ @ k+l+J I.m+i ^.D 7.n+}+o+p+# . ] q+-.5 j ,.5 r+(..     ",
"              . # s+0+a+t+! u+[ 5 ,.j a v+$ Y.w+K.x+1+y+z+k.$.D.A+B+C+@ # D+E+F+G+H+$.> I+M # J+R.. K+! L+I j j ,.,.5 C M+! +   ",
"              # N+O+a+P+P+Q+J+R+6.,.5 b S+%+T+5 ..U+O V+W+X.$ $ # + 8 . . U 8 + . @ ! ! ! $ c.v+<.)+g $ X+5 ,.,.,.,.5 y Y+! .   ",
"              # Z+`+a+ @a+.@@ +@j ,.5 1.@@>._.j ,.j j 5 ..b b U+#@$@M.# . %@&@*@=@-@B+;@>@#.b 5 5 I.,@# Y+y ,.,.,.,.,.-+'@)@.   ",
"              # b+!@a+ @a+~@{@]@o.,.-+^@$ /@].,.,.,.,.,.,.j 5 5 6.y E ! @ n.(@J N W y b ..5 D ,.,.W C+9 _@'.j ,.,.,.,.5 :@p.#   ",
".             @ <@[@a+a+}@a+|@%+G.I -+1@2@3@j ,.,.,.,.,.,.,.,.,.,.5 b ! @ , J 5 ,.,.,.,.,.,.,.,.,...4@5@U -.5 ,.,.,.,.5 :.6@# . ",
"  .           @ 7@~@a+8@9@0@a@b@c@h+4 d@2@e@..,.,.,.,.,.,.,.,.,.,.5 6.! @ s J 5 ,.,.,.,.,.,.,.,.,.5 i M g. +..,.,.,.,.5 I., @ + ",
"  { + . . .   # f@O+8@g@h@i@j@2@( k@l@G+%+Q...,.,.,.,.,.,.,.,.,.,.5 5 ! @ m@J 5 ,.,.,.,.,.,.,.,.,.,.n@e+g.G.b ,.,.,.,.j I.o@# . ",
"  . . p@. @ . . # q@r@s@t@u@v@) ( w@x@y@# z@..,.,.,.,.,.,.,.,.,.,.5 A@! @ m@J 5 ,.,.,.,.,.,.,.,.,.j m+m.+ t W ,.,.,.,.,.J B@. . ",
"  { ) C@D@E@F@G@+ @ H@. I@P+F@J@o.K@# # }.L@5 ,.,.,.,.,.,.,.,.,.,.5 M@! @ m@J 5 ,.,.,.,.,.,.,.,.,.,.'.N@+ O@J ,.,.,.,.,.J P@g.. ",
"    ! Q@R@0+0@a+g@S@$ . T@U@V@W@X@@ # # 7 ( 5 ,.,.,.,.,.,.,.,.,.,.5 5 ! @ , 5.5 ,.,.,.,.,.,.,.,.,.,.a Y@. Z@-.,.,.,.,.j `@ #. . ",
"    # G@U@a+P+a+.#+#@## S@##R.$#e+. %#$ &#T.5 ,.,.,.,.,.,.,.,.,.,.5 < ! @ *#'.5 ,.,.,.,.,.,.,.,.,.,.4 Y.. =#i ,.,.,.,.j ^.=@@ . ",
"    + J+-#P+P+P+P+}@}@;#R.. >#,#1 S@`+'#@ *+..,.,.,.,.,.,.,.,.,.,.5 )#! @ !#'.5 ,.,.,.,.,.,.,.,.,.,.:.~#. {# .,.,.,.j ..V h.# + ",
"      # ]#^#P+ @P+a+/#}@(#b@_#$.) :#}@<#%+[#U+j ,.,.,.,.,.,.,.,.,.5 I ! @ }+'.5 ,.,.,.,.,.,.,.,.,.,.{+}#. |#^.,.,.,.5 b m # . . ",
"      + # 1#8@P+0+U@2#3#a+@#4#5#,+P+a+6#7#) 8##.,.,.,.,.,.,.,.,.,.5 W ! @ 9#'.5 ,.,.,.,.,.,.,.,.,.,.I.*@+ 0#I.,.j j ..a## . +   ",
"        + # b#c#d#<#e## f#g#>+R.h#a+P+8@i#R.j#5 ,.,.,.,.,.,.,.,.,.D 4 ! @ g+'.#.,.,.,.,.,.,.,.,.,.,.E _@+ k#'.5 j l#4.! + . .   ",
"          + # m#n#/#o#2#$ ,+Z+) p#P+ @}@q#r#s#..,.,.,.,.,.,.,.,.,.5 4 ! @ o@'.j ,.,.,.,.,.,.,.,.,.,.K t#+ u#H w+/.{ ! b.v## .   ",
"  .       . . $ w#x#y#0@e#! ! z#<+ @ @a+6#A#B#J b 5 j ,.,.,.,.,.,.,.a ! @ C#'.,.,.,.,.,.,.,.,.,.j A@D#x@+ E#F#G#) $ H#I#J#@ .   ",
"    . + . # . . # @ p@K#b+# ! L#R@P+a+a+M#N## O#P#Q# .W 5 5 j ,.,.,.a $ @ * '.,.,.,.,.,.j #.5 y '.l+i }.+ %@# R.5@#+R#S#@ .     ",
"    . . T#S@U## $ ) ! # . + J+V#a+a+c#W#}@X#@ O Y#}.Z#`#M@ .m+'.N y J ! #  $I.6.b y W a `@B .$d +$@$#$- . ! $$%$w+..j &$! +     ",
"      . @ *$=$=$^#`+b#-$# . J+9@0+a+;$3#~@>$,$b j 6 '$% g.8 )$!$* ~${$# # ]$[ G.^$`./$, ($6+% U + . . + + ~$j j 5 ,.].. . .     ",
"      + $ _$0+P+P+a+}@0@:$<$R.[$8@F@}$o#|$r#1$..j 5 a 2$t.3$y.; % # ! { + # ! ! @ @ @ # # . % ; 5@4$d+. &@E j j j k 5$@ +       ",
"        + @ 6$c#P+ @ @P+c#~@w#7$8$@ ;#i@9$) 0$5 ,.,.j 5 4 ^.i [ X@[#g a$. p+Z.T T Z.b$m.c$d$/+e$a f$o+! ` b ,.j I G.$ + .       ",
"        + . e#g$c#P+P+0+h$g#7@i$j$. 9$=$k$) l$5 j ,.,.,.,.5 5 6.W u.m$@@+ /$[ n$n$_.j I.i ^.J b y G.b.$ _+5 j ..5 S . +         ",
"          + . o$*$/#a+p$q$Z+# # O+. f#r$! # s$W j ,.,.,.,.,.,.,.,.j b t$a$E+a 6.6...5 5 5 j ,.,.J ~#! u$6.j j v$!.+ +           ",
"            . + w$x$8@=$y$!@z$$ A$. B$C$# . @ D$6.,.,.,.,.,.,.,.,.,.b m@1 P#y ,.,.,.,.,.,.,.,.5 E$u+J+F$5 j G$H$9 . .           ",
"              . . # K#I$0+a+0@g@G@J$. . t#>#. 7 I.j ,.,.,.,.,.,.,.,.6.G y+h b ,.,.,.,.,.,.,.,.6.*+g.$ K$5 6.&+g.. .             ",
"                  + # $ ! L$M$N$+ O$# + P$Q$y+g.n$-+j ,.,.,.,.,.,.,...S.p+K$-+,.,.,.,.,.,.,.j j R$R. $)+..;+# . +               ",
"                      + . # @ @ . # S$T$U$(@W+. M.m+j j ,.,.,.,.,.,.5 w )@[ ..,.,.,.,.,.,.,.j O @.y+!+4 &+. . +                 ",
"                                  . . . @$=+:.[.V$k@J j ,.,.,.,.,.,.5 W$d+j 5 ,.,.,.,.,.,.j b X$) 7+X+o@# . +                   ",
"                                      . @ 1+}#Y$! @$Z$6.j ,.,.,.,.,.5 x.++N 5 ,.,.,.,.,.j -+`$@ G#~#@$# . +                     ",
"                            D           + . +  %. @ .%..5 ,.,.,.,.,.5 +%q H 5 ,.,.,.,.j 5 J 5@. K+[.. . .           j           ",
"                                #.        + + . + . @ @%j j 5 5 5 5 5 #%Z.i 5 5 5 5 5 j I.@$+ + . . +                           ",
"                                  #.          . . + . 9 X$$%i+o./ j 5 X+@@D#D )+V %%x.&%*%. . . . .         =%=%                ",
"                                                  . + . @ ) @ m.-%;%>%,%#$$@u#'%d$d+J+$ # . + +                                 ",
"                                    )%                  . . . # @ ! $ $ . $ ! ! @ # ~ + .                                       ",
"                                          =%  !%                . . . . . . . .                                                 ",
"                                            D                                                                                   ",
"                                                #.  5   D                                                                       ",
"                                                    j   ~%          M@        A@                                                ",
"                                                                ~%  ,.                                                          ",
"                                                                                                                                ",
"                                                                                                                                ",
"                                                                                                                                "};
