<?xml version="1.0" encoding="UTF-8" standalone="no"?>
<!-- Created with sK1/UniConvertor (http://sk1project.org/) -->

<svg
   xmlns:dc="http://purl.org/dc/elements/1.1/"
   xmlns:cc="http://creativecommons.org/ns#"
   xmlns:rdf="http://www.w3.org/1999/02/22-rdf-syntax-ns#"
   xmlns:svg="http://www.w3.org/2000/svg"
   xmlns="http://www.w3.org/2000/svg"
   xmlns:sodipodi="http://sodipodi.sourceforge.net/DTD/sodipodi-0.dtd"
   xmlns:inkscape="http://www.inkscape.org/namespaces/inkscape"
   width="595.276pt"
   height="841.89pt"
   viewBox="0 0 595.276 841.89"
   fill-rule="evenodd"
   id="svg3467"
   version="1.1"
   inkscape:version="0.48.5 r10040"
   sodipodi:docname="badan-pertanahan-nasional.cdr">
  <metadata
     id="metadata3487">
    <rdf:RDF>
      <cc:Work
         rdf:about="">
        <dc:format>image/svg+xml</dc:format>
        <dc:type
           rdf:resource="http://purl.org/dc/dcmitype/StillImage" />
        <dc:title></dc:title>
      </cc:Work>
    </rdf:RDF>
  </metadata>
  <defs
     id="defs3485" />
  <sodipodi:namedview
     pagecolor="#ffffff"
     bordercolor="#666666"
     borderopacity="1"
     objecttolerance="10"
     gridtolerance="10"
     guidetolerance="10"
     inkscape:pageopacity="0"
     inkscape:pageshadow="2"
     inkscape:window-width="1366"
     inkscape:window-height="721"
     id="namedview3483"
     showgrid="false"
     inkscape:zoom="0.532136"
     inkscape:cx="372.04749"
     inkscape:cy="526.18127"
     inkscape:window-x="-2"
     inkscape:window-y="-3"
     inkscape:window-maximized="1"
     inkscape:current-layer="svg3467" />
  <g
     id="g3469"
     transform="matrix(0.75763904,0,0,0.75763904,-27.269623,-114.64809)">
    <g
       id="g3471">
      <path
         style="fill:none;stroke:#ffffff;stroke-width:0.21600001"
         d="m 123.307,246.614 595.276,0 0,595.276 -595.276,0 0,-595.276 z"
         id="path3473"
         inkscape:connector-curvature="0" />
      <g
         id="g3475">
        <path
           style="fill:#ba602b;stroke:none"
           d="m 254.908,689.961 c -14.849,1.943 -31.135,-0.336 -46.304,-7.424 -21.405,-10.001 -38.186,-31.047 -44.581,-52.289 22.35,-1.241 46.669,2.428 66.555,12.012 2.023,0.975 4.008,2.047 5.952,3.203 1.01,6.044 2.636,12.061 4.781,17.954 -9.617,-1.698 -19.484,2.419 -26.349,8.537 7.985,-3.693 18.592,-4.295 26.645,1.907 3.411,2.626 6.61,6.121 9.498,10.084 1.213,2.04 2.483,4.047 3.803,6.016 z m -26.509,-68.116 c -14.938,-1.521 -30.31,-7.509 -43.468,-17.943 -18.512,-14.679 -29.972,-39.035 -31.283,-61.18 22.031,3.96 44.843,13.152 61.974,27.075 9.86,8.012 17.828,18.676 23.796,30.607 -0.678,2.683 -1.279,5.379 -1.797,8.081 -3.209,-4.756 -6.79,-8.941 -10.654,-12.098 -9.855,-8.048 -23.477,-6.664 -33.403,-1.312 8.622,-1.747 19.082,0.121 25.482,8.016 4.014,4.952 7.136,11.646 9.353,18.754 z m -1.066,-56.826 c -2.218,-4.336 -3.831,-9.303 -4.499,-14.652 -1.124,-8.99 0.674,-19.47 6.732,-25.851 -9.614,5.464 -17.88,15.964 -16.698,28.273 -4.101,-2.869 -8.491,-5.552 -13.08,-8.027 -1.588,-4.923 -2.732,-9.93 -3.355,-14.968 -2.706,-21.909 1.611,-46.121 9.949,-66.894 18.072,12.864 32.631,35.504 35.246,58.985 1.806,16.22 -1.423,36.393 -8.416,49.878 -1.835,-2.326 -3.792,-4.578 -5.879,-6.744 z m 49.29,111.088 c -3.696,-6.604 -6.453,-13.588 -7.302,-20.013 -1.352,-10.243 4.582,-19.267 11.899,-24.409 -10.89,3.584 -21.434,12.669 -22.383,25.569 -1.077,14.64 5.852,33.56 14.182,47.375 -16.692,-21.026 -27.833,-48.597 -25.875,-74.337 1.701,-22.375 10.864,-45.637 23.343,-64.664 15.427,16.448 25.39,41.933 23.282,65.856 -1.498,17.006 -7.825,32.536 -17.146,44.623 z m 3.632,22.744 c 0.287,0.694 0.57,1.39 0.844,2.087 -0.344,-0.623 -0.698,-1.251 -1.061,-1.879 0.072,-0.068 0.144,-0.139 0.217,-0.208 z"
           id="path3477"
           inkscape:connector-curvature="0" />
        <path
           style="fill:#ffcc00;stroke:none"
           d="m 410.188,333.545 c 118.714,0 215.544,96.827 215.544,215.545 0,118.717 -96.83,215.544 -215.544,215.544 -56.958,0 -108.867,-22.299 -147.472,-58.6 -20.546,2.581 -45.267,-2.518 -65.619,-14.306 -28.794,-16.679 -48.833,-46.861 -54.202,-72.007 -6.803,-3.351 -14.603,-11.723 -11.514,-25.067 1.356,3.602 2.945,10.117 6.232,14.438 2.901,3.811 7.446,5.641 9.733,6.154 9.063,-1.342 19.037,-1.497 29.231,-0.611 -1.683,-1.427 -3.339,-2.911 -4.966,-4.452 -22.228,-21.056 -35.345,-53.349 -34.754,-79.055 -10.733,-9.587 -10.019,-19.15 -4.253,-29.339 -2.667,9.008 -1.12,18.274 7,24.452 14.596,1.263 31.102,5.49 46.54,12 -0.433,-1.666 -0.813,-3.341 -1.139,-5.023 -5.848,-30.187 0.584,-65.683 13.054,-91.01 -0.056,-0.644 -0.146,-1.289 -0.271,-1.934 -1.737,-8.963 -9.714,-15.329 -19.55,-16.699 12.585,-1.287 23.849,5.375 25.872,15.819 0.202,1.041 0.304,2.083 0.314,3.121 4.423,2.735 8.869,6.071 13.193,9.931 35.534,-70.413 108.567,-118.901 192.571,-118.901 z m -155.28,356.416 c -14.849,1.943 -31.135,-0.336 -46.304,-7.424 -21.405,-10.001 -38.186,-31.047 -44.581,-52.289 22.35,-1.241 46.669,2.428 66.555,12.012 2.023,0.975 4.008,2.047 5.952,3.203 1.01,6.044 2.636,12.061 4.781,17.954 -9.617,-1.698 -19.484,2.419 -26.349,8.537 7.985,-3.693 18.592,-4.295 26.645,1.907 3.411,2.626 6.61,6.121 9.498,10.084 1.213,2.04 2.483,4.047 3.803,6.016 z m -26.509,-68.116 c -14.938,-1.521 -30.31,-7.509 -43.468,-17.943 -18.512,-14.679 -29.972,-39.035 -31.283,-61.18 22.031,3.96 44.843,13.152 61.974,27.075 9.86,8.012 17.828,18.676 23.796,30.607 -0.678,2.683 -1.279,5.379 -1.797,8.081 -3.209,-4.756 -6.79,-8.941 -10.654,-12.098 -9.855,-8.048 -23.477,-6.664 -33.403,-1.312 8.622,-1.747 19.082,0.121 25.482,8.016 4.014,4.952 7.136,11.646 9.353,18.754 z m -1.066,-56.826 c -2.218,-4.336 -3.831,-9.303 -4.499,-14.652 -1.124,-8.99 0.674,-19.47 6.732,-25.851 -9.614,5.464 -17.88,15.964 -16.698,28.273 -4.101,-2.869 -8.491,-5.552 -13.08,-8.027 -1.588,-4.923 -2.732,-9.93 -3.355,-14.968 -2.706,-21.909 1.611,-46.121 9.949,-66.894 18.072,12.864 32.631,35.504 35.246,58.985 1.806,16.22 -1.423,36.393 -8.416,49.878 -1.835,-2.326 -3.792,-4.578 -5.879,-6.744 z m 49.29,111.088 c -3.696,-6.604 -6.453,-13.588 -7.302,-20.013 -1.352,-10.243 4.582,-19.267 11.899,-24.409 -10.89,3.584 -21.434,12.669 -22.383,25.569 -1.077,14.64 5.852,33.56 14.182,47.375 -16.692,-21.026 -27.833,-48.597 -25.875,-74.337 1.701,-22.375 10.864,-45.637 23.343,-64.664 15.427,16.448 25.39,41.933 23.282,65.856 -1.498,17.006 -7.825,32.536 -17.146,44.623 z m 3.632,22.744 c 0.287,0.694 0.57,1.39 0.844,2.087 -0.344,-0.623 -0.698,-1.251 -1.061,-1.879 0.072,-0.068 0.144,-0.139 0.217,-0.208 z M 231.382,467.158 c 10.441,13.296 18.839,29.809 22.382,48.096 0.405,2.087 0.735,4.185 0.998,6.289 11.098,2.67 19.21,10.818 19.21,20.413 0,1.079 -0.104,2.138 -0.302,3.175 0.681,0.617 1.357,1.253 2.027,1.906 2.579,-25.842 8.269,-50.306 16.437,-72.49 -8.072,-5.132 -15.206,-10.632 -21.718,-16.285 8.853,3.876 16.188,7.495 23.793,10.836 11.035,-28.059 26.089,-52.215 43.825,-70.526 -5.362,-3.347 -8.98,-7.037 -10.445,-10.929 2.434,3.171 6.747,6.134 12.562,8.774 9.654,-9.599 20.069,-17.484 31.033,-23.356 -2.692,-1.989 -4.204,-4.213 -4.204,-6.559 0,-5.281 7.658,-9.95 19.249,-12.692 -68.831,8.421 -126.865,52.629 -154.847,113.348 z m 59.847,100.028 c 9.035,15.35 15.181,34.068 16.302,52.752 26.546,9.565 58.42,15.896 93.046,17.751 -0.999,-28.375 -1.532,-58.056 -1.532,-88.599 0,-14.838 0.127,-29.471 0.37,-43.851 -41.607,-2.564 -71.316,-11.37 -94.121,-23.137 -8.019,25.11 -12.953,52.787 -13.969,81.841 -0.038,1.083 -0.069,2.164 -0.096,3.243 z m 16.45,56.165 c 0.024,0.898 0.037,1.797 0.037,2.694 0,11.525 -1.616,22.598 -4.538,32.762 9.316,30.463 23.614,56.509 41.411,75.737 19.629,6.978 40.676,10.918 62.571,11.252 -2.521,-27.913 -4.525,-58.429 -5.91,-90.847 -38.538,-4.116 -71.474,-15.484 -93.571,-31.598 z m -14.346,58.699 c -2.72,4.64 -5.767,8.88 -9.085,12.638 0.445,1.363 0.87,2.731 1.273,4.102 -0.54,0.316 -1.09,0.621 -1.649,0.918 9.35,7.857 19.432,14.868 30.135,20.901 -7.938,-11.408 -14.891,-24.364 -20.674,-38.559 z M 254.912,522.804 c 2.534,22.612 -2.842,45.718 -12.826,62.446 0.743,1.364 1.452,2.746 2.13,4.141 5.033,-17.026 12.917,-33.321 22.92,-45.894 0.071,-0.654 0.107,-1.315 0.107,-1.984 0,-7.787 -4.908,-14.67 -12.331,-18.709 z M 518.691,385.122 c -0.531,8.579 -11.468,16.284 -28.772,21.821 14.548,17.166 26.973,38.438 36.421,62.589 21.52,-10.435 33.659,-24.872 31.734,-43.21 -0.39,-3.714 -2.229,-7.887 -4.996,-12.237 -10.31,-10.902 -21.848,-20.63 -34.387,-28.963 z m 55.346,55.284 c -2.262,14.569 -15.413,31.906 -42.024,45.096 8.054,25.097 13.01,52.757 14.03,81.791 0.603,17.14 -0.207,33.799 -2.258,49.74 29.379,-11.748 51.327,-27.636 61.886,-45.763 0.823,-7.285 1.262,-14.682 1.262,-22.18 0,-40.128 -12.127,-77.511 -32.896,-108.684 z m 25.091,163.505 c -14.542,13.538 -34.803,25.363 -58.887,34.366 -6.593,31.842 -18.348,60.029 -33.859,82.325 44.411,-25.042 78.222,-66.825 92.746,-116.691 z M 475.802,734.538 c 20.499,-22.157 36.358,-53.36 45.3,-89.947 -21.462,6.206 -45.209,10.285 -70.165,11.601 -10.883,0.574 -21.535,0.597 -31.869,0.115 -1.382,31.911 -3.365,61.966 -5.851,89.489 21.901,-0.335 42.953,-4.272 62.585,-11.258 z M 434.147,353.81 c 11.59,2.742 19.248,7.411 19.248,12.692 0,2.345 -1.511,4.57 -4.203,6.558 11.935,6.392 23.217,15.17 33.576,25.947 12.957,-4.606 20.858,-10.545 21.055,-17.034 0.071,-2.307 -0.788,-4.716 -2.472,-7.137 -20.549,-10.81 -43.222,-18.09 -67.204,-21.026 z m 9.284,22.427 c -6.846,2.913 -16.691,4.918 -27.832,5.414 0.638,8.752 1.229,17.712 1.767,26.859 20.764,-0.18 39.806,-2.514 54.704,-6.291 -8.841,-10.275 -18.451,-19.026 -28.639,-25.982 z m -38.654,5.414 c -11.141,-0.495 -20.986,-2.5 -27.832,-5.414 -9.502,6.489 -18.502,14.54 -26.844,23.931 13.742,4.334 32.225,7.299 52.922,8.123 0.535,-9.072 1.121,-17.957 1.754,-26.64 z m 15.002,256.599 c 0.681,0.003 1.364,0.005 2.048,0.005 38.123,0 73.691,-5.411 103.547,-14.71 3.083,-18.881 4.401,-38.893 3.677,-59.602 -0.89,-25.441 -4.785,-49.825 -11.123,-72.356 -23.791,8.925 -55.727,14.753 -96.956,14.391 0.236,14.142 0.358,28.528 0.358,43.112 0,30.744 -0.539,60.615 -1.551,89.16 z M 307.828,474.545 c 16.475,5.855 37.807,10.633 77.052,14.2 4.796,0.436 9.761,0.721 14.849,0.863 0.6,-25.889 1.584,-50.87 2.91,-74.63 -22.264,-1.667 -41.674,-5.884 -55.276,-11.647 -16.214,19.161 -29.787,43.474 -39.535,71.214 z m 112.817,14.988 c 35.824,-0.964 67.938,-5.787 92.118,-14.374 -8.659,-24.83 -20.378,-46.935 -34.314,-65.083 -15.951,3.707 -35.506,5.828 -56.548,5.682 -1.382,-0.01 -2.756,-0.029 -4.123,-0.058 1.303,23.521 2.272,48.232 2.867,73.833 z"
           id="path3479"
           inkscape:connector-curvature="0" />
        <path
           style="fill:#526a77;stroke:none"
           d="m 420.645,489.533 c 35.824,-0.964 67.938,-5.787 92.118,-14.374 -8.659,-24.83 -20.378,-46.935 -34.314,-65.083 -15.951,3.707 -35.506,5.828 -56.548,5.682 -1.382,-0.01 -2.756,-0.029 -4.123,-0.058 1.303,23.521 2.272,48.232 2.867,73.833 z m -75.303,-163.217 -0.205,-0.888 c 0.621,-0.597 1.072,-1.108 1.37,-1.549 -0.245,-1.766 -1.059,-5.615 -2.428,-11.544 -0.992,-4.297 -1.759,-7.324 -2.292,-9.077 -0.287,-0.949 -0.546,-1.486 -0.791,-1.606 -0.334,-0.186 -1.323,-0.127 -2.974,0.172 l -0.365,-1.582 3.638,-0.758 2.779,-0.581 c 0.842,-0.194 2.076,-0.513 3.708,-0.957 1.58,-0.433 2.717,-0.73 3.411,-0.89 2.785,-0.643 4.893,-0.635 6.313,0.026 1.424,0.654 2.318,1.795 2.692,3.416 0.386,1.672 0.107,3.166 -0.844,4.503 -0.946,1.33 -2.457,2.471 -4.527,3.423 l 0.036,0.154 c 2.29,-0.292 3.936,-0.32 4.942,-0.071 1.011,0.241 1.899,0.774 2.674,1.605 0.772,0.824 1.3,1.847 1.582,3.069 0.344,1.492 0.214,3.012 -0.385,4.553 -0.606,1.542 -1.574,2.836 -2.915,3.891 -1.337,1.047 -3.371,1.889 -6.098,2.518 -0.54,0.125 -1.355,0.293 -2.445,0.504 -1.011,0.193 -1.839,0.363 -2.476,0.51 -0.72,0.167 -2.182,0.552 -4.4,1.159 z m -114.528,397.288 0.429,-0.444 c 0.568,0.132 1.025,0.201 1.385,0.207 0.913,-0.791 2.799,-2.673 5.663,-5.639 2.074,-2.148 3.512,-3.7 4.311,-4.651 0.434,-0.513 0.643,-0.858 0.621,-1.041 -0.017,-0.259 -0.416,-0.799 -1.196,-1.627 l 0.764,-0.791 1.774,1.787 1.355,1.365 c 0.421,0.406 1.057,0.99 1.912,1.753 0.828,0.738 1.417,1.275 1.764,1.61 1.393,1.345 2.166,2.546 2.314,3.596 0.154,1.05 -0.165,1.979 -0.948,2.79 -0.807,0.836 -1.758,1.229 -2.869,1.182 -1.104,-0.047 -2.31,-0.485 -3.615,-1.309 l -0.075,0.077 c 1.011,1.193 1.635,2.118 1.864,2.782 0.236,0.663 0.261,1.364 0.075,2.111 -0.183,0.743 -0.57,1.42 -1.16,2.031 -0.72,0.746 -1.632,1.233 -2.728,1.461 -1.1,0.224 -2.192,0.152 -3.286,-0.221 -1.088,-0.373 -2.317,-1.218 -3.681,-2.535 -0.27,-0.261 -0.666,-0.662 -1.188,-1.203 -0.483,-0.504 -0.886,-0.911 -1.204,-1.218 -0.36,-0.348 -1.118,-1.037 -2.281,-2.073 z m 11.116,-4.289 0.492,0.475 c 1.061,1.026 1.994,1.553 2.791,1.583 0.8,0.034 1.597,-0.359 2.386,-1.176 0.689,-0.714 1.025,-1.409 1.004,-2.089 -0.021,-0.674 -0.43,-1.397 -1.227,-2.167 -0.296,-0.286 -0.681,-0.608 -1.155,-0.973 -1.903,1.893 -3.062,3.055 -3.481,3.489 l -0.81,0.858 z m -6.451,6.718 c 0.274,0.444 0.575,0.822 0.893,1.129 0.894,0.864 1.824,1.271 2.794,1.22 0.973,-0.049 1.938,-0.572 2.898,-1.565 0.624,-0.647 1.027,-1.283 1.209,-1.903 0.179,-0.623 0.178,-1.214 -0.012,-1.783 -0.184,-0.569 -0.628,-1.191 -1.332,-1.871 l -0.962,-0.91 -0.235,0.245 -2.377,2.422 -2.363,2.486 -0.513,0.53 z m 9.451,11.239 0.694,-0.858 c 0.921,0.682 1.472,1.03 1.655,1.046 0.181,0.02 0.393,-0.079 0.631,-0.288 0.371,-0.316 1.165,-1.233 2.386,-2.74 l 4.497,-5.575 c 1.515,-1.886 2.314,-2.936 2.39,-3.157 0.047,-0.129 0.056,-0.254 0.014,-0.374 -0.062,-0.2 -0.527,-0.691 -1.392,-1.484 l 0.692,-0.855 c 1.319,1.149 2.373,2.043 3.169,2.687 1.254,1.016 2.421,1.92 3.499,2.713 l -0.692,0.854 c -0.879,-0.619 -1.42,-0.96 -1.626,-1.011 -0.121,-0.029 -0.234,-0.023 -0.34,0.029 -0.174,0.073 -0.54,0.426 -1.099,1.066 -0.833,0.943 -1.656,1.916 -2.469,2.92 l -0.684,0.845 c 0.678,0.606 1.783,1.53 3.318,2.773 1.362,1.103 2.381,1.899 3.055,2.388 1.794,-2.201 2.954,-3.684 3.487,-4.455 0.29,-0.409 0.409,-0.704 0.367,-0.887 -0.052,-0.256 -0.513,-0.767 -1.382,-1.54 l 0.692,-0.855 c 1.649,1.416 2.773,2.366 3.37,2.85 1.025,0.83 2.129,1.684 3.308,2.558 l -0.692,0.855 c -0.913,-0.648 -1.471,-0.996 -1.676,-1.035 -0.114,-0.023 -0.224,-0.015 -0.33,0.038 -0.178,0.092 -0.67,0.608 -1.477,1.548 -1.244,1.443 -2.239,2.622 -2.979,3.536 l -3.684,4.669 c -0.833,1.058 -1.288,1.684 -1.366,1.88 -0.078,0.195 -0.092,0.369 -0.035,0.518 0.055,0.154 0.511,0.627 1.367,1.418 l -0.695,0.858 -1.104,-0.946 c -0.829,-0.717 -1.481,-1.268 -1.964,-1.659 -1.005,-0.814 -2.209,-1.749 -3.611,-2.803 l 0.695,-0.859 c 0.942,0.7 1.519,1.046 1.731,1.039 0.21,-0.002 0.508,-0.215 0.899,-0.641 0.667,-0.731 2.024,-2.342 4.063,-4.833 -0.738,-0.644 -1.571,-1.342 -2.503,-2.096 -1.455,-1.179 -2.749,-2.203 -3.87,-3.065 l -0.542,0.671 c -1.441,1.779 -2.494,3.13 -3.17,4.056 -0.449,0.625 -0.647,1.04 -0.6,1.245 0.05,0.202 0.503,0.701 1.365,1.497 l -0.694,0.858 -1.177,-1.005 c -0.735,-0.641 -1.405,-1.206 -2.003,-1.69 l -3.488,-2.704 z m 28.902,1.17 0.599,-0.922 c 1.459,1.022 2.754,1.9 3.883,2.633 0.716,0.465 1.749,1.099 3.092,1.896 l -0.599,0.922 c -0.671,-0.435 -1.187,-0.685 -1.543,-0.751 -0.118,-0.023 -0.232,-0.012 -0.351,0.039 -0.148,0.048 -0.312,0.186 -0.501,0.41 -0.31,0.38 -1.109,1.535 -2.405,3.466 -0.901,1.339 -1.806,2.708 -2.717,4.11 -0.745,1.148 -1.162,2.076 -1.25,2.787 -0.082,0.709 0.04,1.359 0.373,1.954 0.49,0.846 1.167,1.552 2.033,2.115 1.178,0.764 2.204,1.153 3.078,1.172 0.876,0.014 1.641,-0.246 2.294,-0.792 0.658,-0.543 1.729,-1.964 3.222,-4.263 l 2.628,-4.072 c 0.587,-0.92 0.904,-1.498 0.94,-1.735 0.025,-0.128 -0.003,-0.258 -0.08,-0.377 -0.108,-0.22 -0.593,-0.647 -1.446,-1.287 l 0.599,-0.922 c 0.911,0.666 1.764,1.258 2.562,1.776 0.69,0.448 1.551,0.97 2.59,1.57 l -0.599,0.923 c -0.724,-0.471 -1.231,-0.682 -1.516,-0.638 -0.284,0.044 -0.66,0.392 -1.135,1.043 -1.147,1.585 -2.394,3.414 -3.748,5.483 -0.862,1.327 -1.443,2.182 -1.746,2.566 -0.74,0.959 -1.544,1.663 -2.416,2.11 -0.877,0.448 -1.935,0.593 -3.191,0.439 -1.251,-0.157 -2.585,-0.698 -3.998,-1.616 -1.47,-0.955 -2.552,-1.966 -3.239,-3.042 -0.69,-1.071 -1.02,-2.075 -0.996,-3.014 0.025,-0.933 0.456,-2.049 1.299,-3.346 l 3.268,-4.91 c 0.256,-0.394 0.892,-1.414 1.904,-3.055 0.314,-0.516 0.486,-0.895 0.507,-1.142 0.009,-0.138 -0.029,-0.275 -0.114,-0.415 -0.081,-0.138 -0.508,-0.507 -1.281,-1.115 z m 10.671,27.62 0.499,-0.979 0.72,0.311 c 0.586,0.258 0.991,0.339 1.217,0.249 0.231,-0.088 0.595,-0.595 1.096,-1.529 1.034,-1.892 2.124,-3.961 3.264,-6.2 0.607,-1.191 1.289,-2.55 2.047,-4.076 0.451,-0.925 0.681,-1.514 0.691,-1.761 0.005,-0.127 -0.038,-0.25 -0.129,-0.376 -0.095,-0.129 -0.612,-0.473 -1.556,-1.044 l 0.5,-0.98 c 0.927,0.503 1.842,0.984 2.746,1.444 1.052,0.536 2.066,1.038 3.054,1.511 -0.085,1.202 -0.15,2.403 -0.191,3.606 -0.035,0.856 -0.122,4.515 -0.255,10.97 5.356,-3.974 9.205,-6.946 11.545,-8.92 0.912,0.515 1.79,0.987 2.631,1.415 0.988,0.504 1.95,0.969 2.891,1.398 l -0.5,0.98 c -1.052,-0.456 -1.674,-0.662 -1.867,-0.61 -0.19,0.049 -0.46,0.362 -0.805,0.939 -0.559,0.95 -1.541,2.798 -2.939,5.543 -0.707,1.387 -1.436,2.857 -2.189,4.415 -0.754,1.558 -1.147,2.457 -1.169,2.696 -0.009,0.146 0.026,0.275 0.093,0.389 0.073,0.112 0.577,0.464 1.526,1.054 l -0.499,0.98 c -1.233,-0.704 -2.34,-1.308 -3.328,-1.811 -0.996,-0.508 -2.367,-1.166 -4.11,-1.979 l 0.499,-0.98 0.702,0.327 c 0.556,0.258 0.933,0.355 1.135,0.293 0.205,-0.057 0.465,-0.351 0.781,-0.882 0.317,-0.526 0.997,-1.81 2.037,-3.85 l 3.591,-7.047 c -2.424,1.791 -5.559,4.163 -9.403,7.117 -1.581,1.211 -2.84,2.216 -3.786,3.008 l -0.793,-0.404 c 0.101,-1.635 0.179,-3.728 0.24,-6.271 l 0.192,-10.354 -0.807,1.586 c -2.238,4.39 -3.754,7.426 -4.555,9.105 -0.317,0.682 -0.434,1.139 -0.358,1.373 0.076,0.235 0.601,0.633 1.583,1.188 l -0.5,0.98 c -0.762,-0.464 -1.538,-0.9 -2.331,-1.303 -1.184,-0.603 -2.255,-1.109 -3.21,-1.521 z m 26.613,13.119 0.413,-1.024 c 1.138,0.397 1.81,0.557 2.007,0.488 0.197,-0.07 0.417,-0.352 0.653,-0.851 0.489,-1.045 1.324,-3.028 2.502,-5.943 0.45,-1.115 1.089,-2.742 1.913,-4.878 0.568,-1.454 0.86,-2.261 0.867,-2.422 0.009,-0.166 -0.033,-0.299 -0.131,-0.415 -0.141,-0.163 -0.725,-0.486 -1.751,-0.978 l 0.412,-1.02 c 1.64,0.74 2.904,1.289 3.787,1.646 1.521,0.614 2.91,1.138 4.169,1.569 l -0.412,1.019 c -1.13,-0.379 -1.787,-0.543 -1.971,-0.492 -0.187,0.055 -0.38,0.271 -0.581,0.648 -0.385,0.751 -1.059,2.311 -2.017,4.683 -1.276,3.158 -2.151,5.36 -2.629,6.614 -0.477,1.254 -0.705,2.02 -0.681,2.305 0.009,0.124 0.079,0.249 0.211,0.375 0.133,0.125 0.667,0.414 1.607,0.866 l -0.413,1.024 -1.419,-0.617 c -0.895,-0.4 -1.696,-0.743 -2.409,-1.031 l -4.127,-1.566 z m 13.528,5.134 0.201,-0.584 c 0.57,-0.12 1.013,-0.251 1.342,-0.398 0.493,-1.102 1.408,-3.606 2.75,-7.504 0.972,-2.824 1.618,-4.838 1.941,-6.036 0.176,-0.649 0.22,-1.05 0.122,-1.207 -0.125,-0.227 -0.714,-0.548 -1.77,-0.969 l 0.358,-1.04 2.362,0.871 1.805,0.663 c 0.554,0.191 1.377,0.451 2.474,0.781 1.063,0.319 1.823,0.557 2.279,0.714 1.831,0.631 3.039,1.392 3.617,2.281 0.584,0.887 0.688,1.863 0.321,2.929 -0.379,1.099 -1.075,1.857 -2.101,2.284 -1.021,0.424 -2.299,0.537 -3.83,0.341 l -0.035,0.102 c 1.42,0.654 2.376,1.229 2.865,1.733 0.494,0.501 0.813,1.127 0.96,1.882 0.148,0.75 0.084,1.527 -0.193,2.331 -0.338,0.981 -0.958,1.807 -1.855,2.477 -0.902,0.668 -1.922,1.064 -3.072,1.188 -1.144,0.122 -2.615,-0.124 -4.407,-0.741 -0.355,-0.123 -0.884,-0.319 -1.585,-0.589 -0.651,-0.252 -1.187,-0.451 -1.606,-0.595 -0.474,-0.163 -1.452,-0.467 -2.943,-0.914 z m 8.261,-8.585 0.647,0.223 c 1.395,0.48 2.463,0.564 3.199,0.255 0.74,-0.308 1.295,-1.001 1.664,-2.075 0.324,-0.939 0.334,-1.71 0.028,-2.317 -0.304,-0.602 -0.98,-1.085 -2.028,-1.446 -0.389,-0.134 -0.874,-0.263 -1.458,-0.393 -0.924,2.519 -1.484,4.062 -1.68,4.632 l -0.372,1.121 z m -3.007,8.815 c 0.436,0.287 0.868,0.502 1.287,0.646 1.175,0.404 2.19,0.381 3.047,-0.076 0.862,-0.456 1.515,-1.337 1.965,-2.643 0.292,-0.85 0.389,-1.597 0.292,-2.236 -0.101,-0.64 -0.352,-1.175 -0.765,-1.611 -0.407,-0.438 -1.072,-0.813 -1.998,-1.132 l -1.256,-0.419 -0.11,0.322 -1.131,3.2 -1.091,3.251 -0.24,0.698 z m 13.412,5.776 0.268,-1.072 c 1.122,0.229 1.769,0.312 1.942,0.249 0.171,-0.058 0.322,-0.237 0.45,-0.528 0.202,-0.443 0.534,-1.608 1.004,-3.491 l 1.72,-6.954 c 0.576,-2.349 0.856,-3.639 0.831,-3.871 -0.012,-0.136 -0.056,-0.253 -0.144,-0.344 -0.142,-0.155 -0.771,-0.404 -1.89,-0.757 l 0.266,-1.067 c 1.682,0.483 3.014,0.848 4.008,1.096 1.566,0.39 3.005,0.717 4.317,0.979 l -0.266,1.067 c -1.058,-0.189 -1.692,-0.269 -1.901,-0.229 -0.121,0.025 -0.222,0.078 -0.295,0.17 -0.127,0.139 -0.31,0.614 -0.546,1.431 -0.356,1.206 -0.691,2.436 -1.003,3.69 l -0.263,1.054 c 0.87,0.263 2.261,0.633 4.179,1.111 1.701,0.424 2.96,0.715 3.777,0.873 0.696,-2.753 1.121,-4.587 1.278,-5.511 0.091,-0.493 0.073,-0.811 -0.042,-0.959 -0.155,-0.21 -0.789,-0.478 -1.904,-0.811 l 0.267,-1.068 c 2.093,0.587 3.512,0.973 4.258,1.159 1.28,0.319 2.641,0.626 4.08,0.92 l -0.266,1.067 c -1.102,-0.201 -1.755,-0.281 -1.957,-0.229 -0.113,0.027 -0.209,0.081 -0.283,0.173 -0.122,0.159 -0.35,0.835 -0.685,2.028 -0.517,1.834 -0.921,3.323 -1.205,4.464 l -1.365,5.789 c -0.308,1.309 -0.457,2.07 -0.444,2.28 0.012,0.21 0.073,0.373 0.187,0.485 0.114,0.116 0.729,0.352 1.838,0.707 l -0.267,1.071 -1.4,-0.39 c -1.055,-0.3 -1.879,-0.524 -2.482,-0.674 -1.254,-0.313 -2.741,-0.652 -4.456,-1.015 l 0.267,-1.071 c 1.148,0.235 1.818,0.305 2.007,0.21 0.189,-0.091 0.37,-0.41 0.544,-0.961 0.295,-0.945 0.844,-2.979 1.64,-6.098 -0.941,-0.271 -1.991,-0.552 -3.154,-0.841 -1.818,-0.454 -3.423,-0.836 -4.802,-1.143 l -0.209,0.838 c -0.554,2.221 -0.938,3.89 -1.158,5.014 -0.143,0.758 -0.147,1.217 -0.018,1.383 0.13,0.162 0.752,0.423 1.87,0.78 l -0.267,1.071 -1.492,-0.413 c -0.936,-0.271 -1.782,-0.5 -2.529,-0.686 l -4.305,-0.976 z m 24.772,4.615 c 0.817,0.069 1.328,0.06 1.536,-0.037 0.145,-0.066 0.395,-0.369 0.749,-0.897 0.685,-1.051 1.582,-2.519 2.682,-4.4 l 6.172,-10.601 1.908,0.268 3.905,14.753 c 0.507,1.918 0.837,2.972 0.99,3.169 0.153,0.198 0.685,0.394 1.594,0.581 l -0.154,1.093 c -1.404,-0.26 -2.732,-0.479 -3.985,-0.655 -1.497,-0.21 -2.922,-0.379 -4.281,-0.507 l 0.154,-1.093 c 1.037,0.105 1.638,0.126 1.808,0.078 0.17,-0.053 0.268,-0.175 0.295,-0.365 0.023,-0.164 -0.08,-0.752 -0.308,-1.759 l -0.543,-2.338 c -1.069,-0.169 -2.267,-0.346 -3.587,-0.532 -1.151,-0.161 -2.201,-0.3 -3.143,-0.414 l -0.781,1.412 c -0.215,0.38 -0.491,0.96 -0.826,1.734 -0.079,0.175 -0.128,0.335 -0.149,0.481 -0.028,0.199 0.036,0.353 0.194,0.456 0.156,0.107 0.755,0.278 1.788,0.509 l -0.153,1.093 c -0.842,-0.181 -1.891,-0.36 -3.153,-0.537 -1.2,-0.169 -2.161,-0.273 -2.878,-0.31 l 0.166,-1.182 z m 10.272,-11.375 -3.671,6.27 c 0.791,0.156 1.664,0.302 2.625,0.437 1.005,0.141 1.965,0.253 2.887,0.338 l -1.841,-7.045 z m 13.15,15.426 0.039,-1.103 c 1.066,-0.039 1.667,-0.09 1.799,-0.143 0.1,-0.042 0.168,-0.097 0.216,-0.167 0.094,-0.118 0.169,-0.374 0.237,-0.775 0.123,-0.689 0.216,-1.961 0.29,-3.82 l 0.185,-4.932 c 0.056,-1.573 0.079,-2.887 0.067,-3.943 -0.013,-1.057 -0.058,-1.676 -0.137,-1.853 -0.049,-0.118 -0.136,-0.206 -0.254,-0.273 -0.181,-0.091 -0.795,-0.18 -1.839,-0.261 l 0.039,-1.099 c 1.57,0.117 2.968,0.197 4.197,0.24 1.474,0.052 2.874,0.069 4.194,0.053 l -0.038,1.099 c -1.102,0.042 -1.74,0.114 -1.914,0.224 -0.174,0.106 -0.286,0.379 -0.337,0.811 -0.064,0.549 -0.167,2.75 -0.311,6.598 l 0.183,0.006 c 0.905,-0.675 2.221,-1.819 3.936,-3.424 1.716,-1.604 3.047,-2.945 3.992,-4.022 l 0.031,-0.482 0.003,-0.487 0.121,-0.126 c 0.95,0.096 1.762,0.156 2.432,0.179 0.711,0.025 1.503,0.022 2.39,-0.01 l -0.039,1.099 -0.749,0.055 c -0.596,0.037 -0.983,0.09 -1.16,0.156 -0.354,0.144 -0.834,0.449 -1.437,0.921 -0.896,0.693 -2.034,1.647 -3.415,2.869 l -2.405,2.117 1.151,1.521 c 1.36,1.792 2.989,3.836 4.887,6.121 1.09,1.313 1.744,2.038 1.968,2.18 0.153,0.09 0.566,0.177 1.235,0.249 l -0.039,1.104 -0.692,-0.051 -2.329,-0.149 c -0.626,-0.021 -1.441,-0.018 -2.439,0.009 -0.674,-0.936 -1.817,-2.43 -3.432,-4.486 -1.207,-1.545 -2.357,-2.95 -3.459,-4.21 -0.141,-0.161 -0.246,-0.259 -0.303,-0.288 -0.053,-0.02 -0.106,-0.03 -0.155,-0.032 -0.134,-0.005 -0.225,0.046 -0.283,0.151 -0.029,0.066 -0.055,0.414 -0.076,1.044 l -0.085,3.97 c -0.023,1.158 0.002,1.83 0.072,2.007 0.05,0.122 0.132,0.215 0.255,0.273 0.172,0.082 0.786,0.175 1.838,0.27 l -0.038,1.103 c -1.29,-0.107 -2.718,-0.188 -4.291,-0.243 -0.795,-0.028 -2.159,-0.045 -4.101,-0.05 z m 27.268,0.648 -0.096,-1.1 c 0.494,-0.043 1.007,-0.129 1.543,-0.265 0.246,-0.066 0.417,-0.153 0.516,-0.26 0.093,-0.112 0.157,-0.301 0.183,-0.578 0.029,-0.379 -0.037,-1.756 -0.201,-4.138 -0.125,-1.686 -0.262,-3.411 -0.416,-5.17 -0.302,-3.452 -0.465,-5.21 -0.493,-5.275 -0.028,-0.061 -0.338,-0.07 -0.931,-0.018 -1.207,0.106 -2.242,0.233 -3.108,0.38 -0.5,0.084 -0.782,0.153 -0.844,0.204 -0.059,0.05 -0.106,0.131 -0.127,0.24 -0.026,0.115 -0.036,0.883 -0.023,2.309 l -1.122,0.098 c -0.128,-1.663 -0.302,-3.088 -0.518,-4.277 l 0.133,-0.119 c 2.75,-0.12 5.423,-0.291 8.015,-0.517 2.584,-0.226 5.469,-0.542 8.662,-0.942 l 0.16,0.197 c -0.06,1.208 -0.054,2.612 0.015,4.218 l -1.083,0.094 c -0.207,-1.445 -0.351,-2.222 -0.442,-2.34 -0.066,-0.089 -0.215,-0.143 -0.432,-0.16 -0.709,-0.05 -2.094,0.013 -4.166,0.194 -0.174,0.015 -0.278,0.051 -0.305,0.108 -0.03,0.061 -0.028,0.294 0.007,0.695 l 0.687,8.777 c 0.223,2.539 0.381,4.096 0.476,4.671 0.096,0.575 0.229,0.918 0.404,1.024 0.122,0.065 0.813,0.099 2.073,0.093 l 0.096,1.099 c -1.284,0.05 -2.645,0.138 -4.079,0.263 -1.889,0.165 -3.413,0.33 -4.584,0.495 z m 17.212,-1.349 -0.154,-1.094 c 1.184,-0.225 1.847,-0.422 1.982,-0.581 0.136,-0.159 0.185,-0.514 0.14,-1.063 -0.099,-1.15 -0.367,-3.284 -0.805,-6.398 -0.167,-1.19 -0.428,-2.919 -0.782,-5.181 -0.235,-1.543 -0.386,-2.388 -0.46,-2.532 -0.074,-0.147 -0.178,-0.241 -0.321,-0.293 -0.204,-0.071 -0.871,-0.058 -2.005,0.029 l -0.153,-1.089 c 1.79,-0.18 3.158,-0.336 4.102,-0.469 1.625,-0.228 3.089,-0.47 4.394,-0.726 l 0.153,1.09 c -1.167,0.236 -1.818,0.422 -1.953,0.558 -0.134,0.142 -0.193,0.425 -0.178,0.852 0.041,0.843 0.238,2.531 0.594,5.064 0.474,3.373 0.817,5.718 1.031,7.043 0.213,1.324 0.399,2.102 0.563,2.336 0.069,0.103 0.192,0.177 0.369,0.219 0.178,0.043 0.785,0.025 1.826,-0.053 l 0.153,1.093 -1.537,0.176 c -0.975,0.101 -1.84,0.204 -2.602,0.311 l -4.357,0.708 z m 19.324,-3.643 c 0.783,-0.242 1.254,-0.442 1.41,-0.61 0.11,-0.115 0.228,-0.49 0.359,-1.113 0.241,-1.23 0.523,-2.927 0.838,-5.084 l 1.751,-12.141 1.87,-0.466 9.147,12.216 c 1.189,1.588 1.89,2.441 2.105,2.567 0.216,0.126 0.783,0.109 1.696,-0.058 l 0.267,1.071 c -1.399,0.284 -2.713,0.579 -3.941,0.886 -1.466,0.366 -2.851,0.743 -4.159,1.134 l -0.267,-1.072 c 1.001,-0.291 1.567,-0.496 1.706,-0.605 0.138,-0.113 0.183,-0.262 0.137,-0.449 -0.04,-0.16 -0.355,-0.667 -0.945,-1.515 l -1.379,-1.965 c -1.054,0.244 -2.232,0.529 -3.525,0.851 -1.128,0.281 -2.154,0.546 -3.069,0.793 l -0.196,1.602 c -0.057,0.433 -0.096,1.074 -0.116,1.918 -0.007,0.19 0.007,0.358 0.042,0.501 0.049,0.195 0.166,0.314 0.35,0.35 0.186,0.041 0.805,-0.025 1.85,-0.198 l 0.266,1.071 c -0.848,0.147 -1.888,0.374 -3.124,0.683 -1.176,0.293 -2.105,0.557 -2.784,0.791 l -0.289,-1.158 z m 5.263,-14.395 -1.055,7.189 c 0.792,-0.152 1.656,-0.344 2.597,-0.578 0.985,-0.246 1.917,-0.502 2.804,-0.769 l -4.346,-5.842 z m 19.167,9.748 -0.23,-0.63 c 0.449,-0.534 0.757,-0.927 0.937,-1.178 -0.411,-1.483 -1.337,-4.21 -2.779,-8.172 -0.626,-1.718 -1.164,-3.145 -1.62,-4.282 -0.459,-1.142 -0.752,-1.777 -0.889,-1.918 -0.058,-0.069 -0.136,-0.113 -0.225,-0.123 -0.146,-0.022 -0.788,0.097 -1.915,0.36 l -0.381,-1.047 c 1.255,-0.408 2.682,-0.905 4.291,-1.49 l 6.049,-2.273 c 2.206,-0.803 3.985,-1.132 5.329,-0.993 1.351,0.141 2.568,0.664 3.659,1.571 1.09,0.902 1.938,2.173 2.536,3.816 0.768,2.109 0.903,4.115 0.41,6.027 -0.495,1.907 -1.381,3.462 -2.658,4.659 -1.273,1.196 -2.767,2.111 -4.481,2.735 l -4.692,1.622 c -0.747,0.272 -1.863,0.712 -3.341,1.316 z m 4.435,-3.332 c 0.73,-0.137 1.458,-0.335 2.176,-0.597 1.832,-0.666 3.132,-1.434 3.903,-2.31 0.767,-0.874 1.231,-2.018 1.393,-3.429 0.158,-1.408 -0.077,-2.983 -0.71,-4.722 -0.834,-2.291 -2.057,-3.82 -3.679,-4.59 -1.429,-0.684 -3.325,-0.598 -5.69,0.263 -0.508,0.185 -1.377,0.544 -2.598,1.083 l 2.694,7.718 c 1.178,3.234 2.014,5.428 2.511,6.584 z m 18.556,-4.971 -0.413,-1.023 c 1.093,-0.505 1.689,-0.857 1.782,-1.044 0.093,-0.187 0.055,-0.543 -0.122,-1.065 -0.374,-1.092 -1.151,-3.098 -2.328,-6.013 -0.451,-1.115 -1.122,-2.729 -2.012,-4.838 -0.602,-1.44 -0.952,-2.224 -1.059,-2.345 -0.108,-0.125 -0.232,-0.192 -0.383,-0.208 -0.215,-0.019 -0.859,0.155 -1.938,0.514 l -0.412,-1.02 c 1.693,-0.607 2.983,-1.09 3.867,-1.447 1.521,-0.614 2.884,-1.203 4.088,-1.767 l 0.412,1.019 c -1.076,0.512 -1.663,0.851 -1.76,1.015 -0.096,0.17 -0.084,0.459 0.033,0.87 0.244,0.807 0.844,2.398 1.802,4.769 1.276,3.159 2.176,5.351 2.704,6.585 0.527,1.233 0.895,1.943 1.111,2.131 0.092,0.083 0.229,0.124 0.412,0.123 0.182,-0.002 0.767,-0.166 1.758,-0.494 l 0.414,1.024 -1.45,0.543 c -0.921,0.333 -1.736,0.643 -2.449,0.931 l -4.057,1.74 z m 20.084,-16.176 -0.482,-0.945 c 1.431,-0.688 2.706,-1.318 3.818,-1.884 1.027,-0.524 2.127,-1.104 3.302,-1.743 l 0.379,0.745 c -0.286,0.286 -0.547,0.58 -0.783,0.886 0.304,0.833 0.602,1.525 0.884,2.079 0.203,0.398 0.647,1.16 1.341,2.287 -1.258,1.343 -2.354,2.383 -3.29,3.106 -0.938,0.73 -1.963,1.377 -3.075,1.943 -3.004,1.531 -5.756,1.95 -8.246,1.257 -2.497,-0.695 -4.379,-2.28 -5.644,-4.762 -1.301,-2.554 -1.473,-5.04 -0.516,-7.455 0.952,-2.417 3.05,-4.454 6.296,-6.109 1.144,-0.582 2.286,-1.049 3.429,-1.406 1.143,-0.356 2.281,-0.595 3.416,-0.712 l 0.193,0.123 c 0.28,1.102 0.74,2.418 1.377,3.945 l -0.979,0.499 c -0.386,-0.736 -0.771,-1.363 -1.153,-1.887 -0.79,-0.32 -1.65,-0.423 -2.58,-0.316 -0.927,0.111 -1.924,0.439 -2.992,0.983 -1.999,1.019 -3.284,2.436 -3.849,4.254 -0.567,1.82 -0.315,3.784 0.759,5.891 1.145,2.247 2.694,3.741 4.641,4.48 1.946,0.735 3.838,0.639 5.667,-0.293 0.972,-0.495 1.886,-1.262 2.74,-2.294 -0.241,-0.63 -0.503,-1.214 -0.777,-1.752 -0.609,-1.195 -1.014,-1.822 -1.218,-1.879 -0.202,-0.052 -1.088,0.269 -2.658,0.959 z m 4.747,-15.011 -0.599,-0.923 c 1.526,-0.916 2.856,-1.742 3.984,-2.475 0.716,-0.465 1.716,-1.152 2.991,-2.054 l 0.598,0.922 c -0.671,0.436 -1.108,0.806 -1.314,1.105 -0.069,0.098 -0.105,0.207 -0.107,0.336 -0.016,0.154 0.043,0.361 0.171,0.624 0.221,0.438 0.952,1.638 2.188,3.607 0.857,1.368 1.739,2.752 2.65,4.154 0.745,1.148 1.424,1.906 2.037,2.276 0.615,0.363 1.258,0.516 1.937,0.453 0.972,-0.104 1.893,-0.435 2.759,-0.997 1.177,-0.765 1.95,-1.544 2.322,-2.334 0.37,-0.795 0.443,-1.6 0.211,-2.419 -0.23,-0.821 -1.092,-2.378 -2.585,-4.677 l -2.651,-4.057 c -0.601,-0.91 -1.001,-1.435 -1.202,-1.565 -0.107,-0.074 -0.237,-0.102 -0.378,-0.08 -0.244,0.009 -0.831,0.279 -1.763,0.798 l -0.599,-0.922 c 0.979,-0.561 1.866,-1.1 2.665,-1.619 0.69,-0.448 1.516,-1.022 2.487,-1.727 l 0.599,0.922 c -0.723,0.47 -1.124,0.848 -1.198,1.126 -0.076,0.278 0.089,0.762 0.49,1.462 0.982,1.692 2.146,3.575 3.485,5.653 0.862,1.328 1.406,2.207 1.634,2.639 0.575,1.066 0.891,2.087 0.945,3.065 0.053,0.984 -0.246,2.01 -0.896,3.093 -0.654,1.08 -1.69,2.078 -3.103,2.996 -1.471,0.955 -2.834,1.531 -4.096,1.722 -1.26,0.195 -2.311,0.087 -3.159,-0.316 -0.842,-0.402 -1.686,-1.251 -2.529,-2.548 l -3.156,-4.983 c -0.255,-0.393 -0.929,-1.389 -2.016,-2.981 -0.344,-0.497 -0.621,-0.808 -0.837,-0.928 -0.122,-0.065 -0.264,-0.086 -0.426,-0.065 -0.159,0.018 -0.67,0.259 -1.539,0.717 z m 29.452,1.457 -0.695,-0.858 c 0.805,-0.704 1.243,-1.151 1.327,-1.339 0.052,-0.134 0.051,-0.278 -0.002,-0.442 -0.059,-0.222 -0.475,-0.835 -1.25,-1.835 -1.282,-1.661 -2.254,-2.904 -2.923,-3.731 l -3.51,-4.292 c -0.923,-1.14 -1.49,-1.769 -1.71,-1.884 -0.123,-0.067 -0.247,-0.093 -0.371,-0.068 -0.207,0.03 -0.783,0.369 -1.741,1.019 l -0.692,-0.855 c 1.102,-0.834 1.908,-1.459 2.426,-1.878 0.569,-0.461 1.202,-1.002 1.9,-1.625 3.179,0.728 6.693,1.467 10.554,2.206 2.576,0.503 4.75,0.878 6.523,1.128 l -3.267,-4.034 c -1.235,-1.526 -2.319,-2.829 -3.256,-3.9 -0.562,-0.638 -0.944,-0.996 -1.145,-1.08 -0.107,-0.046 -0.227,-0.047 -0.367,0.009 -0.136,0.052 -0.648,0.393 -1.54,1.011 l -0.692,-0.855 c 0.769,-0.564 1.519,-1.143 2.252,-1.737 1.005,-0.814 1.901,-1.568 2.686,-2.261 l 0.692,0.855 c -0.721,0.664 -1.132,1.088 -1.24,1.274 -0.063,0.108 -0.093,0.213 -0.1,0.317 -0.002,0.105 0.019,0.215 0.07,0.335 0.08,0.2 0.481,0.744 1.188,1.632 l 3.267,4.098 3.299,4.117 c 0.892,1.101 1.806,2.179 2.74,3.241 l -0.017,0.249 c -0.94,0.515 -1.599,0.887 -1.977,1.118 -3.311,-0.523 -7.384,-1.247 -12.224,-2.171 -2.446,-0.471 -4.461,-0.899 -6.048,-1.288 l 3.205,3.958 c 0.875,1.08 1.945,2.366 3.21,3.856 0.926,1.108 1.495,1.712 1.71,1.82 0.083,0.054 0.183,0.07 0.293,0.05 0.188,-0.031 0.731,-0.355 1.626,-0.983 l 0.695,0.858 c -1.137,0.841 -1.946,1.455 -2.418,1.838 -0.397,0.321 -1.221,1.029 -2.478,2.127 z m 18.918,-16.706 c 0.557,-0.601 0.865,-1.01 0.916,-1.234 0.038,-0.154 -0.047,-0.538 -0.246,-1.142 -0.406,-1.187 -1.01,-2.797 -1.816,-4.822 l -4.554,-11.391 1.387,-1.339 14.029,6.007 c 1.824,0.781 2.857,1.169 3.107,1.17 0.25,10e-4 0.733,-0.297 1.439,-0.898 l 0.767,0.794 c -1.07,0.946 -2.059,1.858 -2.97,2.738 -1.087,1.049 -2.097,2.069 -3.035,3.061 l -0.767,-0.794 c 0.722,-0.753 1.109,-1.214 1.175,-1.378 0.063,-0.166 0.028,-0.318 -0.106,-0.456 -0.115,-0.119 -0.641,-0.401 -1.575,-0.841 l -2.178,-1.011 c -0.79,0.738 -1.668,1.573 -2.627,2.499 -0.836,0.807 -1.592,1.55 -2.261,2.221 l 0.631,1.485 c 0.167,0.404 0.455,0.979 0.859,1.72 0.089,0.168 0.184,0.306 0.287,0.412 0.14,0.145 0.3,0.189 0.479,0.129 0.181,-0.057 0.684,-0.425 1.502,-1.097 l 0.767,0.795 c -0.662,0.551 -1.449,1.268 -2.365,2.153 -0.872,0.842 -1.545,1.535 -2.016,2.077 l -0.829,-0.858 z m -2.639,-15.098 2.68,6.753 c 0.61,-0.527 1.262,-1.126 1.96,-1.8 0.731,-0.705 1.41,-1.391 2.044,-2.066 l -6.684,-2.887 z m -224.322,-411.053 0.985,-0.228 c 2.122,-0.49 3.524,-1.22 4.203,-2.182 0.686,-0.965 0.838,-2.267 0.461,-3.9 -0.329,-1.428 -0.92,-2.403 -1.778,-2.923 -0.851,-0.515 -2.074,-0.591 -3.669,-0.223 -0.592,0.137 -1.3,0.354 -2.134,0.648 0.814,3.877 1.321,6.246 1.521,7.114 l 0.411,1.694 z m 3.132,13.387 c 0.769,0.018 1.478,-0.05 2.115,-0.197 1.788,-0.413 3.04,-1.237 3.756,-2.48 0.722,-1.243 0.851,-2.858 0.392,-4.845 -0.299,-1.293 -0.762,-2.304 -1.383,-3.028 -0.627,-0.722 -1.36,-1.196 -2.217,-1.418 -0.853,-0.23 -1.979,-0.18 -3.388,0.145 l -1.899,0.459 0.113,0.488 1.089,4.891 1.177,4.924 0.245,1.061 z m 17.449,-1.63 -0.199,-1.618 c 1.507,-0.298 2.356,-0.529 2.544,-0.678 0.141,-0.097 0.242,-0.243 0.297,-0.449 0.085,-0.337 0.014,-1.671 -0.213,-4.004 -0.227,-2.339 -0.477,-4.596 -0.746,-6.784 -0.501,-4.081 -0.899,-6.998 -1.199,-8.737 -0.294,-1.746 -0.552,-2.705 -0.761,-2.892 -0.208,-0.181 -0.781,-0.243 -1.713,-0.196 l -1.119,0.038 -0.198,-1.612 2.178,-0.187 c 1.348,-0.126 2.418,-0.238 3.211,-0.335 1.087,-0.133 2.832,-0.387 5.246,-0.764 1.297,-0.212 2.25,-0.356 2.866,-0.431 2.293,-0.282 4.011,-0.266 5.158,0.032 1.147,0.298 2.06,0.857 2.739,1.671 0.677,0.808 1.094,1.874 1.256,3.198 0.293,2.378 -0.302,4.472 -1.788,6.284 -1.486,1.812 -3.53,2.88 -6.124,3.199 -0.334,0.041 -0.691,0.058 -1.065,0.051 -0.379,-0.007 -0.78,-0.024 -1.217,-0.063 -0.273,-0.432 -0.557,-0.856 -0.853,-1.259 l 0.38,-0.532 c 0.289,0.024 0.557,0.045 0.798,0.055 0.241,0.01 0.459,0.003 0.649,-0.02 1.291,-0.158 2.291,-0.733 3,-1.725 0.711,-0.985 0.971,-2.28 0.774,-3.885 -0.218,-1.775 -0.807,-3.053 -1.759,-3.821 -0.954,-0.774 -2.245,-1.061 -3.883,-0.86 -0.669,0.082 -1.437,0.27 -2.306,0.556 0.339,3.955 0.677,7.305 1.013,10.043 0.114,0.924 0.527,3.852 1.24,8.792 0.28,1.954 0.477,3.074 0.604,3.351 0.093,0.214 0.229,0.351 0.424,0.42 0.298,0.103 1.402,0.1 3.309,-0.021 l 0.199,1.618 c -2.278,0.187 -4.19,0.375 -5.736,0.565 -0.695,0.085 -3.028,0.419 -7.006,1 z m 23.988,-3.005 -0.028,-1.631 c 1.576,-0.087 2.492,-0.208 2.76,-0.352 0.183,-0.108 0.312,-0.276 0.4,-0.515 0.133,-0.313 0.207,-1.403 0.214,-3.271 0.018,-3.097 0.017,-5.427 -0.011,-6.997 l -0.182,-8.183 c -0.037,-2.164 -0.125,-3.41 -0.276,-3.744 -0.083,-0.19 -0.204,-0.334 -0.371,-0.417 -0.266,-0.153 -1.246,-0.282 -2.951,-0.397 l -0.028,-1.623 c 2.04,0.03 3.545,0.037 4.529,0.02 1.082,-0.019 2.309,-0.074 3.687,-0.164 3.036,3.736 6.453,7.789 10.272,12.159 2.54,2.926 4.727,5.337 6.563,7.239 l -0.134,-7.662 c -0.05,-2.897 -0.127,-5.397 -0.243,-7.494 -0.074,-1.253 -0.193,-2.017 -0.35,-2.298 -0.082,-0.151 -0.222,-0.26 -0.435,-0.323 -0.205,-0.062 -1.111,-0.132 -2.71,-0.223 l -0.028,-1.623 c 1.406,0.041 2.806,0.05 4.198,0.025 1.908,-0.033 3.636,-0.096 5.179,-0.189 l 0.028,1.623 c -1.443,0.118 -2.306,0.239 -2.601,0.356 -0.17,0.069 -0.301,0.164 -0.404,0.278 -0.097,0.12 -0.174,0.267 -0.223,0.452 -0.088,0.306 -0.116,1.303 -0.1,2.979 l 0.075,7.736 0.097,7.787 c 0.036,2.092 0.119,4.177 0.241,6.261 l -0.246,0.275 c -1.562,-0.257 -2.668,-0.422 -3.316,-0.497 -3.377,-3.618 -7.457,-8.161 -12.246,-13.635 -2.418,-2.77 -4.373,-5.099 -5.865,-6.995 l 0.131,7.517 c 0.036,2.053 0.112,4.52 0.229,7.403 0.07,2.131 0.183,3.35 0.334,3.671 0.049,0.138 0.15,0.248 0.296,0.325 0.247,0.134 1.173,0.25 2.786,0.334 l 0.028,1.63 c -2.087,-0.056 -3.586,-0.076 -4.484,-0.06 -0.752,0.013 -2.355,0.087 -4.815,0.223 z m 42.921,0.658 0.283,-1.606 c 1.497,0.137 2.358,0.161 2.598,0.09 0.15,-0.054 0.276,-0.159 0.363,-0.311 0.184,-0.283 0.456,-1.294 0.811,-3.041 0.544,-2.705 0.954,-4.838 1.228,-6.398 0.372,-2.106 0.819,-4.789 1.34,-8.048 0.381,-2.432 0.52,-3.943 0.428,-4.522 -0.024,-0.172 -0.104,-0.32 -0.239,-0.431 -0.178,-0.166 -0.973,-0.447 -2.382,-0.856 l 0.282,-1.599 c 2.607,0.567 4.294,0.919 5.055,1.053 l 9.573,1.507 c 2.067,0.364 3.54,0.832 4.417,1.402 0.873,0.563 1.507,1.338 1.905,2.313 0.397,0.981 0.492,2.07 0.283,3.26 -0.27,1.527 -0.946,2.782 -2.033,3.776 -1.081,0.996 -2.794,1.746 -5.135,2.245 l 2.978,6.832 2.334,5.237 c 0.462,0.872 0.824,1.405 1.088,1.619 0.265,0.208 0.725,0.376 1.385,0.506 l -0.259,1.469 -1.128,-0.178 c -3.228,-0.543 -5.309,-0.87 -6.247,-0.981 -0.793,-1.963 -1.993,-4.816 -3.599,-8.55 l -2.869,-6.652 c 0.148,-0.195 0.287,-0.412 0.407,-0.639 0.496,0.155 0.867,0.253 1.108,0.296 1.176,0.207 2.423,-0.062 3.736,-0.816 1.311,-0.747 2.116,-2.006 2.428,-3.774 0.27,-1.534 0.033,-2.809 -0.722,-3.813 -0.746,-1.01 -2.023,-1.677 -3.83,-1.996 -0.572,-0.1 -1.353,-0.192 -2.344,-0.272 l -1.127,5.591 -1.425,7.095 c -0.285,1.611 -0.583,3.684 -0.903,6.221 -0.23,1.91 -0.312,2.988 -0.255,3.233 0.048,0.182 0.162,0.336 0.352,0.477 0.24,0.196 1.083,0.465 2.527,0.794 l -0.283,1.606 c -2.265,-0.494 -4.286,-0.897 -6.047,-1.207 -1.878,-0.332 -3.908,-0.642 -6.082,-0.932 z m 27.769,5.264 0.422,-1.574 c 1.737,0.376 2.752,0.491 3.028,0.353 0.276,-0.138 0.547,-0.591 0.802,-1.363 0.53,-1.621 1.397,-4.676 2.598,-9.158 0.459,-1.715 1.102,-4.215 1.925,-7.492 0.571,-2.232 0.854,-3.468 0.836,-3.706 -0.017,-0.243 -0.103,-0.43 -0.267,-0.584 -0.237,-0.213 -1.15,-0.581 -2.742,-1.117 l 0.42,-1.568 c 2.536,0.789 4.486,1.366 5.844,1.73 2.34,0.627 4.47,1.143 6.391,1.548 l -0.42,1.568 c -1.723,-0.352 -2.716,-0.475 -2.977,-0.367 -0.263,0.114 -0.507,0.466 -0.733,1.054 -0.43,1.17 -1.136,3.577 -2.114,7.224 -1.301,4.858 -2.188,8.242 -2.662,10.165 -0.474,1.923 -0.67,3.086 -0.582,3.5 0.034,0.18 0.159,0.349 0.376,0.51 0.216,0.161 1.051,0.487 2.511,0.98 l -0.422,1.575 -2.19,-0.648 c -1.383,-0.425 -2.619,-0.784 -3.716,-1.078 l -6.328,-1.552 z M 231.382,467.158 c 10.441,13.296 18.839,29.809 22.382,48.096 0.405,2.087 0.735,4.185 0.998,6.289 11.098,2.67 19.21,10.818 19.21,20.413 0,1.079 -0.104,2.138 -0.302,3.175 0.681,0.617 1.357,1.253 2.027,1.906 2.579,-25.842 8.269,-50.306 16.437,-72.49 -8.072,-5.132 -15.206,-10.632 -21.718,-16.285 8.853,3.876 16.188,7.495 23.793,10.836 11.035,-28.059 26.089,-52.215 43.825,-70.526 -5.362,-3.347 -8.98,-7.037 -10.445,-10.929 2.434,3.171 6.747,6.134 12.562,8.774 9.654,-9.599 20.069,-17.484 31.033,-23.356 -2.692,-1.989 -4.204,-4.213 -4.204,-6.559 0,-5.281 7.658,-9.95 19.249,-12.692 -68.831,8.421 -126.865,52.629 -154.847,113.348 z m 59.847,100.028 c 9.035,15.35 15.181,34.068 16.302,52.752 26.546,9.565 58.42,15.896 93.046,17.751 -0.999,-28.375 -1.532,-58.056 -1.532,-88.599 0,-14.838 0.127,-29.471 0.37,-43.851 -41.607,-2.564 -71.316,-11.37 -94.121,-23.137 -8.019,25.11 -12.953,52.787 -13.969,81.841 -0.038,1.083 -0.069,2.164 -0.096,3.243 z m 16.45,56.165 c 0.024,0.898 0.037,1.797 0.037,2.694 0,11.525 -1.616,22.598 -4.538,32.762 9.316,30.463 23.614,56.509 41.411,75.737 19.629,6.978 40.676,10.918 62.571,11.252 -2.521,-27.913 -4.525,-58.429 -5.91,-90.847 -38.538,-4.116 -71.474,-15.484 -93.571,-31.598 z m -14.346,58.699 c -2.72,4.64 -5.767,8.88 -9.085,12.638 0.445,1.363 0.87,2.731 1.273,4.102 -0.54,0.316 -1.09,0.621 -1.649,0.918 9.35,7.857 19.432,14.868 30.135,20.901 -7.938,-11.408 -14.891,-24.364 -20.674,-38.559 z M 254.912,522.804 c 2.534,22.612 -2.842,45.718 -12.826,62.446 0.743,1.364 1.452,2.746 2.13,4.141 5.033,-17.026 12.917,-33.321 22.92,-45.894 0.071,-0.654 0.107,-1.315 0.107,-1.984 0,-7.787 -4.908,-14.67 -12.331,-18.709 z M 518.691,385.122 c -0.531,8.579 -11.468,16.284 -28.772,21.821 14.548,17.166 26.973,38.438 36.421,62.589 21.52,-10.435 33.659,-24.872 31.734,-43.21 -0.39,-3.714 -2.229,-7.887 -4.996,-12.237 -10.31,-10.902 -21.848,-20.63 -34.387,-28.963 z m 55.346,55.284 c -2.262,14.569 -15.413,31.906 -42.024,45.096 8.054,25.097 13.01,52.757 14.03,81.791 0.603,17.14 -0.207,33.799 -2.258,49.74 29.379,-11.748 51.327,-27.636 61.886,-45.763 0.823,-7.285 1.262,-14.682 1.262,-22.18 0,-40.128 -12.127,-77.511 -32.896,-108.684 z m 25.091,163.505 c -14.542,13.538 -34.803,25.363 -58.887,34.366 -6.593,31.842 -18.348,60.029 -33.859,82.325 44.411,-25.042 78.222,-66.825 92.746,-116.691 z M 475.802,734.538 c 20.499,-22.157 36.358,-53.36 45.3,-89.947 -21.462,6.206 -45.209,10.285 -70.165,11.601 -10.883,0.574 -21.535,0.597 -31.869,0.115 -1.382,31.911 -3.365,61.966 -5.851,89.489 21.901,-0.335 42.953,-4.272 62.585,-11.258 z M 434.147,353.81 c 11.59,2.742 19.248,7.411 19.248,12.692 0,2.345 -1.511,4.57 -4.203,6.558 11.935,6.392 23.217,15.17 33.576,25.947 12.957,-4.606 20.858,-10.545 21.055,-17.034 0.071,-2.307 -0.788,-4.716 -2.472,-7.137 -20.549,-10.81 -43.222,-18.09 -67.204,-21.026 z m 9.284,22.427 c -6.846,2.913 -16.691,4.918 -27.832,5.414 0.638,8.752 1.229,17.712 1.767,26.859 20.764,-0.18 39.806,-2.514 54.704,-6.291 -8.841,-10.275 -18.451,-19.026 -28.639,-25.982 z m -38.654,5.414 c -11.141,-0.495 -20.986,-2.5 -27.832,-5.414 -9.502,6.489 -18.502,14.54 -26.844,23.931 13.742,4.334 32.225,7.299 52.922,8.123 0.535,-9.072 1.121,-17.957 1.754,-26.64 z m 15.002,256.599 c 0.681,0.003 1.364,0.005 2.048,0.005 38.123,0 73.691,-5.411 103.547,-14.71 3.083,-18.881 4.401,-38.893 3.677,-59.602 -0.89,-25.441 -4.785,-49.825 -11.123,-72.356 -23.791,8.925 -55.727,14.753 -96.956,14.391 0.236,14.142 0.358,28.528 0.358,43.112 0,30.744 -0.539,60.615 -1.551,89.16 z M 307.828,474.545 c 16.475,5.855 37.807,10.633 77.052,14.2 4.796,0.436 9.761,0.721 14.849,0.863 0.6,-25.889 1.584,-50.87 2.91,-74.63 -22.264,-1.667 -41.674,-5.884 -55.276,-11.647 -16.214,19.161 -29.787,43.474 -39.535,71.214 z"
           id="path3481"
           inkscape:connector-curvature="0" />
      </g>
    </g>
  </g>
</svg>
